<svg xmlns="http://www.w3.org/2000/svg" viewBox="0 0 1200 630" width="1200" height="630">
  <title>Provii Protocol Specification v0.1</title>
  <defs>
    <linearGradient id="bg" x1="0" y1="0" x2="1" y2="1">
      <stop offset="0%" stop-color="#0B1220"/>
      <stop offset="100%" stop-color="#142744"/>
    </linearGradient>
  </defs>
  <rect width="1200" height="630" fill="url(#bg)"/>

  <!-- Provii logo, top-left -->
  <g transform="translate(80 80) scale(0.45)">
    <path d="M185.5 25.7 c-12.5 1.5 -24.7 4.1 -34.7 7.3 c-24.6 8.1 -43.7 19.8 -61.8 38.0 c-21.8 21.7 -34.8 45.4 -42.2 77.2 l-2.2 9.3 l-0.3 107.9 c-0.3 70.1 0.0 108.3 0.6 108.9 c1.1 1.1 3.0 -0.5 33.4 -28.8 c10.7 -9.9 20.2 -19.2 21.1 -20.7 l1.6 -2.6 l0.0 -72.9 c0.0 -43.4 0.4 -76.4 1.0 -81.8 c1.5 -12.5 3.4 -19.5 8.6 -30.4 c9.1 -19.4 23.3 -34.1 42.3 -44.0 c13.2 -6.8 22.3 -9.6 37.1 -11.1 c19.7 -2.1 41.2 3.3 59.6 15.0 c2.7 1.6 5.7 3.0 6.9 3.0 c1.4 -0.0 8.5 -6.4 21.0 -19.0 l18.8 -19.0 l-1.8 -2.0 c-2.4 -2.6 -17.4 -12.8 -25.5 -17.3 c-8.9 -4.9 -21.9 -10.1 -31.5 -12.7 c-4.4 -1.1 -12.7 -2.7 -18.5 -3.5 c-9.6 -1.3 -26.1 -1.7 -33.5 -0.8 z" fill="#4A7FB5"/>
    <path d="M264.8 116.0 c-43.4 43.9 -62.9 63.0 -64.4 63.0 c-1.4 -0.0 -8.0 -6.0 -20.3 -18.5 c-10.1 -10.3 -18.9 -18.5 -19.9 -18.5 c-1.0 -0.0 -7.5 5.8 -14.6 12.9 l-12.8 12.9 l1.0 1.9 c1.5 2.8 59.7 62.4 62.3 63.9 c1.3 0.7 3.8 1.3 5.4 1.4 l3.0 -0.0 l75.7 -76.2 c48.7 -49.1 75.7 -77.0 75.8 -78.3 c0.0 -2.5 -24.7 -27.5 -27.2 -27.5 c-0.9 -0.0 -29.7 28.3 -64.0 63.0 z" fill="#0091C7"/>
    <path d="M315.4 145.4 l-22.4 23.0 l0.0 3.7 c0.0 11.7 -4.5 30.0 -10.3 41.4 c-10.4 20.7 -28.5 37.3 -49.7 45.4 c-12.0 4.7 -23.5 6.4 -37.5 5.8 c-6.6 -0.3 -14.9 -1.3 -18.5 -2.3 c-20.1 -5.3 -40.1 -18.3 -54.2 -35.3 c-2.0 -2.3 -4.1 -4.0 -4.7 -3.6 c-0.8 0.4 -1.1 11.8 -1.1 35.5 l0.0 34.9 l2.2 2.5 c2.9 3.2 14.2 9.5 25.5 14.2 c20.2 8.4 46.1 12.4 67.2 10.4 c20.3 -1.9 35.3 -6.1 52.6 -14.6 c13.9 -6.8 26.5 -15.8 38.2 -27.3 c24.5 -24.2 38.7 -51.7 43.8 -85.1 c2.0 -12.5 1.9 -32.3 -0.1 -44.1 c-1.7 -10.0 -5.9 -24.7 -7.6 -26.4 c-0.6 -0.7 -8.5 6.8 -23.4 21.9 z" fill="#4A7FB5"/>
  </g>

  <text x="280" y="155" font-family="-apple-system, BlinkMacSystemFont, 'Segoe UI', Helvetica, sans-serif" font-size="48" font-weight="700" fill="#ffffff">Provii</text>

  <!-- Title -->
  <text x="80" y="340" font-family="-apple-system, BlinkMacSystemFont, 'Segoe UI', Helvetica, sans-serif" font-size="68" font-weight="700" fill="#ffffff">Protocol Specification</text>
  <text x="80" y="420" font-family="-apple-system, BlinkMacSystemFont, 'Segoe UI', Helvetica, sans-serif" font-size="68" font-weight="700" fill="#0091C7">v0.1</text>

  <!-- Subtitle -->
  <text x="80" y="490" font-family="-apple-system, BlinkMacSystemFont, 'Segoe UI', Helvetica, sans-serif" font-size="28" font-weight="400" fill="#B8C4D4">A privacy-preserving age verification protocol</text>

  <!-- Footer -->
  <text x="80" y="570" font-family="-apple-system, BlinkMacSystemFont, 'Segoe UI', Helvetica, sans-serif" font-size="22" font-weight="500" fill="#7A8A9D">spec.provii.app</text>
  <text x="1120" y="570" font-family="-apple-system, BlinkMacSystemFont, 'Segoe UI', Helvetica, sans-serif" font-size="22" font-weight="500" fill="#7A8A9D" text-anchor="end">May 2026 &#183; CC BY 4.0</text>
</svg>
